<svg id="_レイヤー_1" xmlns="http://www.w3.org/2000/svg" viewBox="0 0 234.77 146.53">
    <!-- <defs>
        <linearGradient id="MyGradient">
          <stop offset="25%" stop-color="#FF9814" />
          <stop offset="75%" stop-color="#FF1AB4" />
        </linearGradient>
      </defs> -->
    <g><path d="M30.02,35.14c-1.16-1.1-2.52-2.02-4.08-2.78-1.56-.75-3.21-1.13-4.95-1.13-1.33,0-2.56,.26-3.69,.78-1.13,.52-1.69,1.42-1.69,2.69s.62,2.08,1.87,2.6c1.24,.52,3.25,1.1,6.03,1.74,1.62,.35,3.25,.84,4.9,1.47,1.65,.64,3.14,1.48,4.47,2.52,1.33,1.04,2.4,2.31,3.21,3.82,.81,1.5,1.21,3.3,1.21,5.38,0,2.72-.55,5.02-1.65,6.9-1.1,1.88-2.53,3.4-4.29,4.56-1.77,1.16-3.75,1.99-5.94,2.52-2.2,.52-4.4,.78-6.59,.78-3.53,0-6.98-.56-10.37-1.69-3.38-1.13-6.2-2.79-8.46-4.99l7.98-8.41c1.27,1.39,2.83,2.55,4.69,3.47,1.85,.93,3.82,1.39,5.9,1.39,1.16,0,2.3-.27,3.43-.82,1.13-.55,1.69-1.52,1.69-2.91s-.69-2.31-2.08-2.95c-1.39-.64-3.56-1.3-6.51-1.99-1.51-.35-3.01-.81-4.51-1.39-1.51-.58-2.85-1.36-4.03-2.34-1.19-.98-2.16-2.2-2.91-3.64-.75-1.45-1.13-3.18-1.13-5.21,0-2.6,.55-4.82,1.65-6.64,1.1-1.82,2.52-3.31,4.25-4.47,1.73-1.16,3.66-2.01,5.77-2.56,2.11-.55,4.21-.82,6.29-.82,3.24,0,6.4,.51,9.5,1.52,3.09,1.01,5.71,2.53,7.85,4.56l-7.81,8.07Z"/><path d="M60.99,32.97v16.55c0,2.03,.39,3.56,1.17,4.57,.78,1.02,2.18,1.52,4.21,1.52,.69,0,1.43-.06,2.21-.17,.78-.12,1.43-.29,1.95-.52l.17,10.41c-.98,.35-2.23,.65-3.73,.91-1.51,.26-3.01,.39-4.51,.39-2.89,0-5.32-.36-7.29-1.09-1.97-.72-3.54-1.77-4.73-3.13-1.19-1.36-2.04-2.99-2.56-4.87-.52-1.88-.78-3.99-.78-6.31v-18.27h-6.94v-10.58h6.85V11.02h13.97v11.36h10.15v10.58h-10.15Z"/><path d="M102.88,65.59v-5.99h-.16c-.47,.98-1.08,1.91-1.84,2.78s-1.64,1.62-2.65,2.26c-1.01,.64-2.13,1.16-3.36,1.56-1.22,.4-2.51,.61-3.87,.61-2.6,0-4.8-.52-6.6-1.56-1.8-1.04-3.25-2.39-4.37-4.04-1.12-1.65-1.93-3.53-2.42-5.64-.5-2.11-.74-4.26-.74-6.46V22.38h12.88v23.43c0,1.21,.08,2.37,.23,3.47,.16,1.1,.46,2.08,.9,2.95,.44,.87,1.03,1.55,1.76,2.04,.73,.49,1.69,.74,2.89,.74,2.24,0,3.94-.92,5.11-2.78,1.17-1.85,1.76-4.02,1.76-6.51V22.38h12.81v43.21h-12.34Z"/><path d="M152.69,65.59v-5.64h-.16c-1.25,2.2-3.03,3.89-5.35,5.08-2.32,1.18-4.78,1.78-7.38,1.78-2.92,0-5.52-.64-7.81-1.91-2.29-1.27-4.23-2.96-5.82-5.08-1.59-2.11-2.8-4.56-3.63-7.33-.83-2.78-1.25-5.67-1.25-8.68s.43-5.88,1.29-8.63c.86-2.75,2.08-5.16,3.67-7.24,1.59-2.08,3.51-3.73,5.78-4.95,2.26-1.21,4.8-1.82,7.61-1.82s5.28,.61,7.26,1.82c1.98,1.21,3.51,2.55,4.61,3.99h.16V0h12.81V65.59h-11.79Zm-.47-21.69c0-1.39-.22-2.75-.66-4.08-.44-1.33-1.07-2.52-1.87-3.56-.81-1.04-1.78-1.88-2.93-2.52-1.15-.64-2.45-.95-3.9-.95s-2.84,.32-3.98,.95c-1.15,.64-2.11,1.46-2.89,2.47-.78,1.01-1.37,2.18-1.76,3.51-.39,1.33-.59,2.69-.59,4.08s.2,2.76,.59,4.12c.39,1.36,.98,2.56,1.76,3.6,.78,1.04,1.74,1.88,2.89,2.52,1.14,.64,2.47,.95,3.98,.95s2.76-.32,3.9-.95c1.14-.64,2.12-1.47,2.93-2.52,.81-1.04,1.43-2.23,1.87-3.56,.44-1.33,.66-2.69,.66-4.08Z"/><path d="M186.73,8.59c0,1.1-.22,2.13-.65,3.08s-1.01,1.78-1.74,2.47c-.72,.69-1.59,1.24-2.6,1.65-1.01,.4-2.07,.61-3.17,.61-2.31,0-4.25-.77-5.81-2.3-1.56-1.53-2.34-3.37-2.34-5.51,0-1.04,.2-2.04,.61-2.99,.4-.95,.98-1.78,1.74-2.47,.75-.69,1.62-1.26,2.6-1.69,.98-.43,2.05-.65,3.21-.65s2.15,.2,3.17,.61c1.01,.4,1.88,.95,2.6,1.65,.72,.69,1.3,1.52,1.74,2.47,.43,.95,.65,1.98,.65,3.08Zm-15.27,57V22.38h14.23v43.21h-14.23Z"/><path d="M234.77,43.81c0,3.53-.57,6.72-1.72,9.59-1.14,2.86-2.71,5.29-4.68,7.29-1.98,2-4.27,3.54-6.87,4.64-2.6,1.1-5.39,1.65-8.35,1.65s-5.69-.55-8.32-1.65c-2.63-1.1-4.92-2.65-6.87-4.64-1.95-2-3.5-4.42-4.65-7.29-1.14-2.86-1.72-6.06-1.72-9.59s.57-6.71,1.72-9.54c1.14-2.83,2.69-5.23,4.65-7.2,1.95-1.97,4.24-3.47,6.87-4.51,2.63-1.04,5.4-1.56,8.32-1.56s5.75,.52,8.35,1.56c2.6,1.04,4.89,2.55,6.87,4.51,1.98,1.97,3.54,4.37,4.68,7.2,1.14,2.83,1.72,6.02,1.72,9.54Zm-12.34,0c0-1.39-.21-2.75-.62-4.08-.42-1.33-1.02-2.5-1.8-3.51-.78-1.01-1.75-1.84-2.89-2.47-1.15-.64-2.47-.95-3.98-.95s-2.84,.32-3.98,.95c-1.15,.64-2.1,1.46-2.85,2.47-.76,1.01-1.33,2.18-1.72,3.51-.39,1.33-.59,2.69-.59,4.08s.2,2.75,.59,4.08c.39,1.33,.98,2.53,1.76,3.6,.78,1.07,1.74,1.92,2.89,2.56,1.14,.64,2.47,.95,3.98,.95s2.84-.32,3.98-.95c1.14-.64,2.11-1.49,2.89-2.56,.78-1.07,1.37-2.27,1.76-3.6,.39-1.33,.59-2.69,.59-4.08Z"/></g>
    <g><path d="M35.26,91.28v53.42H19.01v-53.42H0v-13.88H54.27v13.88h-19.01Z"/><path d="M97.71,144.71l-14.61-26.71h-5.54v26.71h-15.87V77.41h25.66c3.23,0,6.38,.33,9.46,1,3.07,.67,5.83,1.79,8.27,3.37,2.44,1.59,4.39,3.68,5.85,6.27,1.46,2.6,2.19,5.83,2.19,9.7,0,4.56-1.24,8.4-3.71,11.5-2.47,3.11-5.89,5.32-10.27,6.65l17.58,28.8h-19.01Zm-.67-46.67c0-1.58-.34-2.87-1-3.85-.67-.98-1.53-1.74-2.58-2.28-1.05-.54-2.23-.9-3.53-1.09-1.31-.19-2.56-.28-3.77-.28h-8.69v15.68h7.74c1.34,0,2.71-.11,4.11-.33,1.4-.22,2.67-.62,3.82-1.19,1.15-.57,2.08-1.39,2.82-2.47,.73-1.08,1.1-2.47,1.1-4.18Z"/><path d="M176.65,130.42c-1.36,3.33-3.31,6.18-5.85,8.55-2.54,2.38-5.59,4.23-9.17,5.56-3.58,1.33-7.56,2-11.93,2s-8.43-.67-11.98-2c-3.55-1.33-6.56-3.18-9.03-5.56-2.47-2.38-4.37-5.23-5.7-8.55-1.33-3.33-2-7.02-2-11.07v-41.92h16.16v40.59c0,1.84,.24,3.58,.71,5.23,.48,1.65,1.2,3.12,2.19,4.42,.98,1.3,2.28,2.33,3.9,3.09,1.62,.76,3.56,1.14,5.85,1.14s4.23-.38,5.85-1.14c1.62-.76,2.93-1.79,3.95-3.09,1.01-1.3,1.74-2.77,2.19-4.42,.44-1.65,.67-3.39,.67-5.23v-40.59h16.25v41.92c0,4.06-.68,7.75-2.04,11.07Z"/><path d="M187.82,145.06V77.77h45.24v13.69h-29.56v12.74h27.95v13.02h-27.95v13.97h31.27v13.88h-46.96Z"/></g>
</svg>