<?xml version="1.0" encoding="utf-8"?>
<!-- Generator: Adobe Illustrator 27.0.1, SVG Export Plug-In . SVG Version: 6.00 Build 0)  -->
<svg version="1.1" id="レイヤー_1" xmlns="http://www.w3.org/2000/svg" xmlns:xlink="http://www.w3.org/1999/xlink" x="0px"
	 y="0px" viewBox="0 0 32 32" style="enable-background:new 0 0 32 32;" xml:space="preserve">
<style type="text/css">
	.st0{fill:#231815;}
</style>
<g>
	<polygon class="st0" points="14,14.63 14,8.77 17.19,8.77 17.19,7.36 14,7.36 14,1.41 12.59,1.41 12.59,14.63 	"/>
	<rect x="25.88" y="13.2" class="st0" width="1.41" height="10.1"/>
	<rect x="24.47" y="23.3" class="st0" width="1.41" height="4.17"/>
	<rect x="8.47" y="24.79" class="st0" width="1.41" height="2.68"/>
	<rect x="7.06" y="21.96" class="st0" width="1.41" height="2.83"/>
	<rect x="3.97" y="17.36" class="st0" width="1.41" height="1.47"/>
	<polygon class="st0" points="8.47,16.06 8.47,20.17 9.88,20.17 9.88,1.41 8.47,1.41 8.47,14.59 7.06,14.59 7.06,16.06 	"/>
	<rect x="5.38" y="18.83" class="st0" width="1.68" height="3.13"/>
	<polygon class="st0" points="22.75,30.59 11.29,30.59 11.29,27.47 9.88,27.47 9.88,30.59 9.88,32 11.29,32 22.75,32 23.22,32 
		24.47,32 24.47,27.47 22.75,27.47 	"/>
	<polygon class="st0" points="18.6,14.63 18.6,10.18 21.34,10.18 21.34,8.77 18.6,8.77 18.26,8.77 17.19,8.77 17.19,14.63 	"/>
	<rect x="24.47" y="11.58" class="st0" width="1.41" height="1.62"/>
	<rect x="9.88" class="st0" width="2.71" height="1.41"/>
	<polygon class="st0" points="7.06,14.59 7.06,13.18 2.57,13.18 2.57,13.29 2.57,14.59 2.57,17.36 3.97,17.36 3.97,14.59 	"/>
	<polygon class="st0" points="21.34,11.58 21.34,16.01 22.75,16.01 22.75,11.58 24.47,11.58 24.47,10.18 21.34,10.18 21.34,10.2 	
		"/>
</g>
</svg>
