<?xml version="1.0" encoding="utf-8"?>
<!-- Generator: Adobe Illustrator 27.0.1, SVG Export Plug-In . SVG Version: 6.00 Build 0)  -->
<svg version="1.1" xmlns="http://www.w3.org/2000/svg" xmlns:xlink="http://www.w3.org/1999/xlink" x="0px" y="0px"
	 viewBox="0 0 348.36 434.17" style="enable-background:new 0 0 348.36 434.17;" xml:space="preserve">
<style type="text/css">
	.st0{display:none;}
</style>
<g id="レイヤー_1" class="st0">
</g>
<g id="レイヤー_2">
	<g>
		<polygon points="157.82,199.29 157.82,123.08 199.37,123.08 199.37,104.77 157.82,104.77 157.82,27.46 139.51,27.46 
			139.51,199.29 		"/>
		<rect x="312.27" y="180.76" width="18.31" height="131.2"/>
		<rect x="293.96" y="311.96" width="18.31" height="54.19"/>
		<rect x="85.99" y="331.38" width="18.31" height="34.77"/>
		<rect x="67.68" y="294.57" width="18.31" height="36.8"/>
		<rect x="27.57" y="234.73" width="18.31" height="19.14"/>
		<polygon points="85.99,217.89 85.99,271.25 104.3,271.25 104.3,27.46 85.99,27.46 85.99,198.75 67.68,198.75 67.68,217.89 		"/>
		<rect x="45.88" y="253.87" width="21.8" height="40.7"/>
		<polygon points="271.61,406.7 122.61,406.7 122.61,366.14 104.3,366.14 104.3,406.7 104.3,425.01 122.61,425.01 271.61,425.01 
			277.68,425.01 293.96,425.01 293.96,366.14 271.61,366.14 		"/>
		<polygon points="217.68,199.29 217.68,141.38 253.3,141.38 253.3,123.08 217.68,123.08 213.25,123.08 199.37,123.08 
			199.37,199.29 		"/>
		<rect x="293.96" y="159.69" width="18.31" height="21.06"/>
		<rect x="104.3" y="9.15" width="35.21" height="18.31"/>
		<polygon points="67.68,198.75 67.68,180.44 9.26,180.44 9.26,181.91 9.26,198.75 9.26,234.73 27.57,234.73 27.57,198.75 		"/>
		<polygon points="253.3,159.69 253.3,217.26 271.61,217.26 271.61,159.69 293.96,159.69 293.96,141.38 253.3,141.38 253.3,141.74 
					"/>
	</g>
</g>
</svg>
